<svg xmlns="http://www.w3.org/2000/svg" viewBox="0 0 64 64">
    <style>
      path { 
        fill-rule:evenodd;
        clip-rule:evenodd;
        fill:#6396FF; 
      }
      @media (prefers-color-scheme: dark) {
        path {
          fill: white;
        }
      }
    </style>
    <path d="M46.9 15.9c2.4 0 4.3 1.9 4.3 4.3s-1.9 4.3-4.3 4.3-4.3-1.9-4.3-4.3 1.9-4.3 4.3-4.3zm0 10.2c3.2 0 5.9-2.6 5.9-5.9 0-3.2-2.6-5.9-5.9-5.9-3.2 0-5.9 2.6-5.9 5.9.1 3.3 2.7 5.9 5.9 5.9zm0 2.2c-2.1 0-4.2.7-5.9 2.1-.3.3-.4.8-.1 1.1.3.3.8.4 1.1.1 1.4-1.1 3.1-1.7 4.9-1.7 4.3 0 7.8 3.5 7.8 7.8v8.5c0 .4.3.8.7.8s.8-.3.8-.7v-8.6c.1-5.2-4.1-9.4-9.3-9.4zM17.1 15.9c2.4 0 4.3 1.9 4.3 4.3s-1.9 4.3-4.3 4.3-4.3-1.9-4.3-4.3 1.9-4.3 4.3-4.3m0 10.2c3.2 0 5.9-2.6 5.9-5.9 0-3.2-2.6-5.9-5.9-5.9-3.2 0-5.9 2.6-5.9 5.9 0 3.3 2.6 5.9 5.9 5.9m6 5.3c.3-.3.2-.8-.1-1.1-1.7-1.3-3.7-2.1-5.9-2.1-5.2 0-9.4 4.2-9.4 9.4v8.5c0 .4.3.8.8.8.4 0 .8-.3.8-.8v-8.5c0-4.3 3.5-7.8 7.8-7.8 1.8 0 3.5.6 4.9 1.7.3.3.8.3 1.1-.1 0 .1 0 0 0 0zM32 18.6c2.4 0 4.3 1.9 4.3 4.3s-1.9 4.3-4.3 4.3-4.3-1.9-4.3-4.3 1.9-4.3 4.3-4.3m0 10.2c3.2 0 5.9-2.6 5.9-5.9 0-3.2-2.6-5.9-5.9-5.9-3.2 0-5.9 2.6-5.9 5.9 0 3.2 2.7 5.8 5.9 5.9m0 2.1c-5.2 0-9.4 4.2-9.4 9.4v8.6c0 .4.3.8.7.8.4 0 .8-.3.8-.7v-8.6c0-4.3 3.5-7.8 7.8-7.8s7.8 3.5 7.8 7.8v8.5c0 .4.3.8.7.8.4 0 .8-.3.8-.7v-8.6c.2-5.3-4-9.5-9.2-9.5z"/>
</svg>