<svg version="1.1"
	xmlns="http://www.w3.org/2000/svg" viewBox="0 0 176 36" class="logo">
	<style type="text/css">
	path{fill-rule:evenodd;clip-rule:evenodd}
	.logo__kore{fill:#6396ff}
	.logo__people,.logo__rpo{fill:#0e1e2e}
	</style>
	<path class="logo__people" d="M39.2,1.6c2.4,0,4.3,1.9,4.3,4.3c0,2.4-1.9,4.3-4.3,4.3c-2.4,0-4.3-1.9-4.3-4.3C34.9,3.5,36.8,1.6,39.2,1.6z
	 M39.2,11.8c3.2,0,5.9-2.6,5.9-5.9c0-3.2-2.6-5.9-5.9-5.9c-3.2,0-5.9,2.6-5.9,5.9C33.3,9.1,36,11.7,39.2,11.8z M39.2,13.9
	c-2.1,0-4.2,0.7-5.9,2.1c-0.3,0.3-0.4,0.8-0.1,1.1c0.3,0.3,0.8,0.4,1.1,0.1c0,0,0,0,0,0c1.4-1.1,3.1-1.7,4.9-1.7
	c4.3,0,7.8,3.5,7.8,7.8v8.5c0,0.4,0.3,0.8,0.7,0.8s0.8-0.3,0.8-0.7c0,0,0-0.1,0-0.1v-8.5C48.6,18.1,44.4,13.9,39.2,13.9z M9.4,1.6
	c2.4,0,4.3,1.9,4.3,4.3c0,2.4-1.9,4.3-4.3,4.3C7,10.2,5,8.3,5,5.9C5,3.5,7,1.6,9.4,1.6 M9.4,11.8c3.2,0,5.9-2.6,5.9-5.9
	c0-3.2-2.6-5.9-5.9-5.9C6.1,0,3.5,2.6,3.5,5.9C3.5,9.1,6.1,11.7,9.4,11.8 M15.4,17.1c0.3-0.3,0.2-0.8-0.1-1.1
	c-1.7-1.3-3.7-2.1-5.9-2.1c-5.2,0-9.4,4.2-9.4,9.4v8.5c0,0.4,0.3,0.8,0.8,0.8s0.8-0.3,0.8-0.8v-8.5c0-4.3,3.5-7.8,7.8-7.8
	c1.8,0,3.5,0.6,4.9,1.7C14.6,17.5,15.1,17.4,15.4,17.1C15.3,17.1,15.4,17.1,15.4,17.1z M24.3,4.2c2.4,0,4.3,1.9,4.3,4.3
	c0,2.4-1.9,4.3-4.3,4.3c-2.4,0-4.3-1.9-4.3-4.3C20,6.2,21.9,4.2,24.3,4.2 M24.3,14.4c3.2,0,5.9-2.6,5.9-5.9c0-3.2-2.6-5.9-5.9-5.9
	c-3.2,0-5.9,2.6-5.9,5.9C18.4,11.8,21,14.4,24.3,14.4 M24.3,16.6c-5.2,0-9.4,4.2-9.4,9.4v8.6c0,0.4,0.3,0.8,0.7,0.8
	c0.4,0,0.8-0.3,0.8-0.7c0,0,0-0.1,0-0.1v-8.5c0-4.3,3.5-7.8,7.8-7.8c4.3,0,7.8,3.5,7.8,7.8v8.5c0,0.4,0.3,0.8,0.7,0.8
	c0.4,0,0.8-0.3,0.8-0.7c0,0,0-0.1,0-0.1l0-8.5C33.6,20.8,29.4,16.6,24.3,16.6z"/>
	<path class="logo__kore" d="M63,29.8V6.2h4.8v10l4.3-10h4.7l-4.4,10.6l4.8,13h-4.8l-3.6-10.6l-0.8,1.3v9.2H63z M86,26.6
	c0.6,0,1.1-0.1,1.4-0.4c0.3-0.3,0.5-0.7,0.6-1.1c0.1-0.5,0.1-1,0.1-1.5V12.4c0-0.5,0-1-0.1-1.5c-0.1-0.5-0.3-0.8-0.6-1.1
	c-0.3-0.3-0.8-0.4-1.4-0.4c-0.6,0-1,0.1-1.3,0.4c-0.3,0.3-0.5,0.7-0.6,1.1c-0.1,0.5-0.1,1-0.1,1.5v11.2c0,0.5,0,1.1,0.1,1.5
	c0.1,0.5,0.3,0.9,0.6,1.1C85,26.5,85.4,26.6,86,26.6 M86,30.1c-1.7,0-3.1-0.3-4.1-0.9c-1-0.6-1.7-1.5-2.2-2.7
	c-0.4-1.2-0.7-2.5-0.7-4.2v-8.8c0-1.6,0.2-3,0.7-4.1c0.4-1.1,1.2-2,2.2-2.6c1-0.6,2.4-0.9,4.1-0.9c1.7,0,3.1,0.3,4.2,0.9
	c1,0.6,1.8,1.5,2.2,2.6c0.4,1.1,0.7,2.5,0.7,4.1v8.8c0,1.6-0.2,3-0.7,4.2c-0.4,1.2-1.2,2-2.2,2.7C89.2,29.8,87.8,30.1,86,30.1
	 M101.9,16.2h1.4c0.8,0,1.4-0.1,1.8-0.4c0.4-0.3,0.8-0.6,0.9-1.1c0.2-0.5,0.3-1.2,0.3-1.9c0-1.1-0.2-1.9-0.6-2.5
	c-0.4-0.6-1.1-0.9-2.2-0.9h-1.6V16.2L101.9,16.2z M97.1,29.8V6.2h6.1c1.6,0,3,0.2,4.1,0.5c1.1,0.4,2,1,2.6,1.9
	c0.6,0.9,0.9,2.2,0.9,3.8c0,1-0.1,1.8-0.2,2.6c-0.2,0.7-0.5,1.4-0.9,2c-0.4,0.6-1,1-1.8,1.3l3.3,11.5h-4.9l-2.7-10.7h-1.7v10.7
	L97.1,29.8L97.1,29.8z M115.5,29.8V6.2h10.3v3.3h-5.5v6.3h4.2v3.4h-4.2v7.4h5.5v3.3H115.5z"/>
	<path class="logo__rpo" d="M133.4,16.5h3c1,0,1.8-0.2,2.3-0.5c0.5-0.3,0.9-0.8,1.2-1.5c0.2-0.6,0.4-1.4,0.4-2.4c0-1.5-0.3-2.5-0.8-3.3
	c-0.5-0.7-1.5-1.1-3-1.1h-3.1L133.4,16.5L133.4,16.5z M131.1,29.8V6.2h5.3c1.5,0,2.6,0.2,3.5,0.7c0.8,0.5,1.5,1.2,1.8,2.1
	c0.4,0.9,0.6,2,0.6,3.2c0,0.9-0.1,1.7-0.3,2.5c-0.2,0.8-0.5,1.4-1,2c-0.5,0.5-1.1,0.9-2,1.1l3.6,12.1h-2.2l-3.5-11.6h-3.7v11.6
	L131.1,29.8L131.1,29.8z M149.7,17h2.8c1,0,1.7-0.1,2.3-0.4c0.6-0.3,1-0.8,1.3-1.4c0.3-0.7,0.4-1.6,0.4-2.7c0-1.2-0.1-2.1-0.3-2.8
	C156,9,155.6,8.5,155,8.2c-0.6-0.3-1.4-0.4-2.4-0.4h-2.9C149.7,7.8,149.7,17,149.7,17z M147.5,29.8V6.2h5.7c1.4,0,2.5,0.3,3.4,0.8
	c0.8,0.5,1.4,1.3,1.7,2.2c0.3,0.9,0.5,2,0.5,3.3c0,1.1-0.2,2.1-0.5,3.1c-0.3,0.9-1,1.7-1.8,2.3c-0.8,0.6-1.9,0.8-3.2,0.8h-3.5v11.2
	L147.5,29.8L147.5,29.8z M169.2,28.3c1,0,1.8-0.2,2.4-0.6c0.5-0.4,0.9-1,1.1-1.7c0.2-0.7,0.3-1.6,0.3-2.6V12.6c0-1-0.1-1.9-0.3-2.6
	c-0.2-0.7-0.6-1.3-1.1-1.7c-0.5-0.4-1.3-0.6-2.4-0.6c-1.1,0-1.8,0.2-2.4,0.6c-0.6,0.4-0.9,1-1.1,1.7s-0.3,1.6-0.3,2.6v10.7
	c0,1,0.1,1.9,0.3,2.6c0.2,0.7,0.6,1.3,1.1,1.7C167.4,28.1,168.2,28.3,169.2,28.3 M169.2,30.1c-1.6,0-2.8-0.3-3.7-0.9
	c-0.9-0.6-1.5-1.5-1.9-2.6c-0.4-1.1-0.5-2.4-0.5-3.8V13c0-1.4,0.2-2.7,0.6-3.7c0.4-1.1,1-1.9,1.9-2.5c0.9-0.6,2.1-0.9,3.6-0.9
	c1.5,0,2.7,0.3,3.6,0.9c0.9,0.6,1.5,1.4,1.9,2.5c0.4,1.1,0.6,2.3,0.6,3.7v9.8c0,1.4-0.2,2.7-0.5,3.7c-0.4,1.1-1,1.9-1.9,2.5
	C172,29.8,170.8,30.1,169.2,30.1"/>
</svg>
