<svg version="1.1" id="Layer_1" xmlns="http://www.w3.org/2000/svg" x="0" y="0" viewBox="0 0 256 256" style="enable-background:new 0 0 256 256" xml:space="preserve"><style>.st0,.st2{fill-rule:evenodd;clip-rule:evenodd}.st2{fill:#fff}</style><path class="st0" d="M78.8 111.9c2.4 0 4.3 1.9 4.3 4.3s-1.9 4.3-4.3 4.3-4.3-1.9-4.3-4.3 1.9-4.3 4.3-4.3zm0 10.2c3.2 0 5.9-2.6 5.9-5.9 0-3.2-2.6-5.9-5.9-5.9-3.2 0-5.9 2.6-5.9 5.9.1 3.3 2.7 5.9 5.9 5.9zm0 2.2c-2.1 0-4.2.7-5.9 2.1-.3.3-.4.8-.1 1.1.3.3.8.4 1.1.1 1.4-1.1 3.1-1.7 4.9-1.7 4.3 0 7.8 3.5 7.8 7.8v8.5c0 .4.3.8.7.8.4 0 .8-.3.8-.7v-8.6c.1-5.2-4.1-9.4-9.3-9.4zM49 111.9c2.4 0 4.3 1.9 4.3 4.3s-1.9 4.3-4.3 4.3-4.3-1.9-4.3-4.3 1.9-4.3 4.3-4.3m0 10.2c3.2 0 5.9-2.6 5.9-5.9 0-3.2-2.6-5.9-5.9-5.9-3.2 0-5.9 2.6-5.9 5.9 0 3.3 2.6 5.9 5.9 5.9"/><g transform="translate(0 13.92)"><defs><filter id="Adobe_OpacityMaskFilter" filterUnits="userSpaceOnUse" x="39.6" y="110.3" width="15.5" height="18.7"><feColorMatrix values="1 0 0 0 0 0 1 0 0 0 0 0 1 0 0 0 0 0 1 0"/></filter></defs><mask maskUnits="userSpaceOnUse" x="39.6" y="110.3" width="15.5" height="18.7" id="b_00000176028743686979051590000003405686173284835755_"><g style="filter:url(#Adobe_OpacityMaskFilter)"><path id="logo__a_00000160881358422004918110000017897150808174918302_" class="st2" d="M39.6 110.3h15.5V129H39.6v-18.7z"/></g></mask><path d="M55 113.5c.3-.3.2-.8-.1-1.1-1.7-1.3-3.7-2.1-5.9-2.1-5.2 0-9.4 4.2-9.4 9.4v8.5c0 .4.3.8.8.8s.8-.3.8-.8v-8.5c0-4.3 3.5-7.8 7.8-7.8 1.8 0 3.5.6 4.9 1.7.3.3.8.3 1.1-.1z" style="mask:url(#b_00000176028743686979051590000003405686173284835755_);fill-rule:evenodd;clip-rule:evenodd"/></g><path class="st0" d="M63.9 114.6c2.4 0 4.3 1.9 4.3 4.3s-1.9 4.3-4.3 4.3-4.3-1.9-4.3-4.3 1.9-4.3 4.3-4.3m0 10.2c3.2 0 5.9-2.6 5.9-5.9 0-3.2-2.6-5.9-5.9-5.9-3.2 0-5.9 2.6-5.9 5.9 0 3.2 2.7 5.8 5.9 5.9"/><g transform="translate(14.928 16.582)"><defs><filter id="Adobe_OpacityMaskFilter_00000177472598058030253370000015599414354034338692_" filterUnits="userSpaceOnUse" x="39.6" y="110.3" width="18.7" height="18.7"><feColorMatrix values="1 0 0 0 0 0 1 0 0 0 0 0 1 0 0 0 0 0 1 0"/></filter></defs><mask maskUnits="userSpaceOnUse" x="39.6" y="110.3" width="18.7" height="18.7" id="d_00000085246053935077207420000011664986896221051554_"><g style="filter:url(#Adobe_OpacityMaskFilter_00000177472598058030253370000015599414354034338692_)"><path id="logo__c_00000066481503248080917240000001835128568320547209_" class="st2" d="M39.6 110.3h18.7V129H39.6v-18.7z"/></g></mask><path d="M49 110.3c-5.2 0-9.4 4.2-9.4 9.4v8.5c0 .4.3.8.7.8s.8-.3.8-.7v-8.6c0-4.3 3.5-7.8 7.8-7.8s7.8 3.5 7.8 7.8v8.5c0 .4.3.8.7.8s.8-.3.8-.7v-8.6c.1-5.2-4.1-9.4-9.2-9.4z" style="mask:url(#d_00000085246053935077207420000011664986896221051554_);fill-rule:evenodd;clip-rule:evenodd"/></g><path d="M102.6 140.1v-23.6h4.8v10l4.3-10h4.7l-4.4 10.6 4.8 13H112l-3.6-10.6-.8 1.3v9.2h-5zm23.1-3.1c.6 0 1.1-.1 1.4-.4.3-.3.5-.7.6-1.1.1-.5.1-1 .1-1.5v-11.2c0-.5 0-1-.1-1.5s-.3-.8-.6-1.1c-.3-.3-.8-.4-1.4-.4-.6 0-1 .1-1.3.4-.3.3-.5.7-.6 1.1-.1.5-.1 1-.1 1.5V134c0 .5 0 1.1.1 1.5.1.5.3.9.6 1.1.2.2.7.4 1.3.4m0 3.4c-1.7 0-3.1-.3-4.1-.9-1-.6-1.7-1.5-2.2-2.7-.4-1.2-.7-2.5-.7-4.2v-8.8c0-1.6.2-3 .7-4.1.4-1.1 1.2-2 2.2-2.6 1-.6 2.4-.9 4.1-.9 1.7 0 3.1.3 4.2.9 1 .6 1.8 1.5 2.2 2.6.4 1.1.7 2.5.7 4.1v8.8c0 1.6-.2 3-.7 4.2-.4 1.2-1.2 2-2.2 2.7-1.1.6-2.5.9-4.2.9m15.8-13.8h1.4c.8 0 1.4-.1 1.8-.4.4-.3.8-.6.9-1.2.2-.5.3-1.2.3-1.9 0-1.1-.2-1.9-.6-2.5-.4-.6-1.1-.9-2.2-.9h-1.6v6.9zm-4.8 13.5v-23.6h6.1c1.6 0 3 .2 4.1.5 1.1.4 2 1 2.6 1.9.6.9.9 2.2.9 3.8 0 1-.1 1.8-.2 2.6-.2.7-.5 1.4-.9 2-.4.6-1 1-1.8 1.3l3.3 11.5h-4.9l-2.7-10.7h-1.7v10.7h-4.8zm18.4 0v-23.6h10.3v3.3h-5.5v6.3h4.2v3.4h-4.2v7.4h5.5v3.3h-10.3z" style="fill-rule:evenodd;clip-rule:evenodd;fill:#6396ff"/><path class="st0" d="M173 126.9h3c1 0 1.8-.2 2.3-.5.5-.3.9-.8 1.2-1.5.2-.6.4-1.4.4-2.4 0-1.5-.3-2.5-.8-3.3-.5-.7-1.5-1.1-3-1.1H173v8.8zm-2.2 13.2v-23.6h5.3c1.5 0 2.6.2 3.5.7.8.5 1.5 1.2 1.8 2.1.4.9.6 2 .6 3.2 0 .9-.1 1.7-.3 2.5-.2.8-.5 1.4-1 2-.5.5-1.1.9-2 1.1l3.6 12.1h-2.2l-3.5-11.6H173v11.6h-2.2v-.1zm18.6-12.8h2.8c1 0 1.7-.1 2.3-.4.6-.3 1-.8 1.3-1.4.3-.7.4-1.6.4-2.7 0-1.2-.1-2.1-.3-2.8-.2-.7-.6-1.1-1.2-1.4-.6-.3-1.4-.4-2.4-.4h-2.9v9.1zm-2.3 12.8v-23.6h5.7c1.4 0 2.5.3 3.4.8.8.5 1.4 1.3 1.7 2.2.3.9.5 2 .5 3.3 0 1.1-.2 2.1-.5 3.1-.3.9-1 1.7-1.8 2.3-.8.6-1.9.8-3.2.8h-3.5v11.2l-2.3-.1z"/><g transform="translate(163.138 5.946)"><defs><filter id="Adobe_OpacityMaskFilter_00000183232154938462597540000003716192860545070992_" filterUnits="userSpaceOnUse" x="39.6" y="110.3" width="12.1" height="24.1"><feColorMatrix values="1 0 0 0 0 0 1 0 0 0 0 0 1 0 0 0 0 0 1 0"/></filter></defs><mask maskUnits="userSpaceOnUse" x="39.6" y="110.3" width="12.1" height="24.1" id="f_00000039831485194074818390000016881083575791334306_"><g style="filter:url(#Adobe_OpacityMaskFilter_00000183232154938462597540000003716192860545070992_)"><path id="logo__e_00000023252715922059616160000000740567877964682378_" class="st2" d="M39.6 110.3h12.1v24.1H39.6v-24.1z"/></g></mask><path d="M45.7 132.7c1 0 1.8-.2 2.4-.6.5-.4.9-1 1.1-1.7.2-.7.3-1.6.3-2.6V117c0-1-.1-1.9-.3-2.6-.2-.7-.6-1.3-1.1-1.7-.5-.4-1.3-.6-2.4-.6-1.1 0-1.8.2-2.4.6-.6.4-.9 1-1.1 1.7-.2.7-.3 1.6-.3 2.6v10.7c0 1 .1 1.9.3 2.6.2.7.6 1.3 1.1 1.7.6.5 1.4.7 2.4.7m0 1.8c-1.6 0-2.8-.3-3.7-.9-.9-.6-1.5-1.5-1.9-2.6-.4-1.1-.5-2.4-.5-3.8v-9.8c0-1.4.2-2.7.6-3.7.4-1.1 1-1.9 1.9-2.5.9-.6 2.1-.9 3.6-.9s2.7.3 3.6.9c.9.6 1.5 1.4 1.9 2.5.4 1.1.6 2.3.6 3.7v9.8c0 1.4-.2 2.7-.5 3.7-.4 1.1-1 1.9-1.9 2.5-.9.8-2.1 1.1-3.7 1.1" style="mask:url(#f_00000039831485194074818390000016881083575791334306_);fill-rule:evenodd;clip-rule:evenodd"/></g></svg>