<svg width="27" height="23"
    xmlns="http://www.w3.org/2000/svg">
    <path d="M7.825.685C3.455 3.82.13 9.14.13 14.935c0 4.655 2.755 7.22 5.89 7.22 2.85 0 5.035-2.28 5.035-5.035 0-2.85-1.9-4.845-4.56-4.845-.475 0-1.14.095-1.235.095.285-3.04 3.04-6.84 6.08-8.835L7.825.685Zm15.2 0c-4.37 3.135-7.695 8.455-7.695 14.25 0 4.655 2.755 7.22 5.89 7.22 2.85 0 5.13-2.28 5.13-5.035 0-2.85-1.995-4.845-4.655-4.845-.475 0-1.14.095-1.235.095.38-3.04 3.04-6.84 6.08-8.835L23.025.685Z" fill="#01349B" fill-rule="nonzero"/>
</svg>